<svg
  xmlns:dc="http://purl.org/dc/elements/1.1/"
  xmlns:cc="http://creativecommons.org/ns#"
  xmlns:rdf="http://www.w3.org/1999/02/22-rdf-syntax-ns#"
  xmlns:svg="http://www.w3.org/2000/svg"
  xmlns="http://www.w3.org/2000/svg"
  viewBox="0 0 16.933333 21.1666675"
  version="1.1"
  x="0px"
  y="0px"
>
  <g transform="translate(0,-280.06665)">
    <path
      style="color:#000000;font-style:normal;font-variant:normal;font-weight:normal;font-stretch:normal;font-size:medium;line-height:normal;font-family:sans-serif;font-variant-ligatures:normal;font-variant-position:normal;font-variant-caps:normal;font-variant-numeric:normal;font-variant-alternates:normal;font-feature-settings:normal;text-indent:0;text-align:start;text-decoration:none;text-decoration-line:none;text-decoration-style:solid;text-decoration-color:#000000;letter-spacing:normal;word-spacing:normal;text-transform:none;writing-mode:lr-tb;direction:ltr;text-orientation:mixed;dominant-baseline:auto;baseline-shift:baseline;text-anchor:start;white-space:normal;shape-padding:0;clip-rule:nonzero;display:inline;overflow:visible;visibility:visible;opacity:1;isolation:auto;mix-blend-mode:normal;color-interpolation:sRGB;color-interpolation-filters:linearRGB;solid-color:#000000;solid-opacity:1;vector-effect:none;fill-opacity:1;fill-rule:nonzero;stroke:none;stroke-width:0.5291667;stroke-linecap:round;stroke-linejoin:round;stroke-miterlimit:4;stroke-dasharray:none;stroke-dashoffset:0;stroke-opacity:1;color-rendering:auto;image-rendering:auto;shape-rendering:auto;text-rendering:auto;enable-background:accumulate"
      fill="white"
      d="m 3.4390638,280.5958 c -0.4351496,0 -0.7932341,0.35808 -0.7932341,0.79324 v 8.46667 c 0,0.35312 0.5296827,0.35312 0.5296827,0 v -6.61304 H 13.757295 v 6.61304 c -0.008,0.36078 0.537268,0.36078 0.529167,0 v -8.46667 c 0,-0.43516 -0.357555,-0.79324 -0.792716,-0.79324 z m 0,0.52969 H 13.493746 c 0.15116,0 0.263549,0.11239 0.263549,0.26355 v 1.32395 H 3.1755124 v -1.32395 c 0,-0.15116 0.1124003,-0.26355 0.2635514,-0.26355 z m 0.5296826,0.52865 c -0.1461293,0 -0.2645833,0.11846 -0.2645833,0.26458 0,0.14613 0.118454,0.26458 0.2645833,0.26458 0.1461188,0 0.2645834,-0.11845 0.2645834,-0.26458 0,-0.14612 -0.1184646,-0.26458 -0.2645834,-0.26458 z m 1.0583334,0 c -0.1461188,0 -0.2645834,0.11846 -0.2645834,0.26458 0,0.14613 0.1184646,0.26458 0.2645834,0.26458 0.1461294,0 0.2645833,-0.11845 0.2645833,-0.26458 0,-0.14612 -0.1184539,-0.26458 -0.2645833,-0.26458 z m 1.0583333,0 c -0.1461188,0 -0.2645833,0.11846 -0.2645833,0.26458 0,0.14613 0.1184645,0.26458 0.2645833,0.26458 0.1461294,0 0.2645834,-0.11845 0.2645834,-0.26458 0,-0.14612 -0.118454,-0.26458 -0.2645834,-0.26458 z m 3.6907316,5.3e-4 c -0.35723,0.0243 -0.332849,0.53791 0.01241,0.52916 h 3.1760263 c 0.34504,-0.008 0.34504,-0.52151 0,-0.52916 z m -8.4521972,0.52916 c -0.4351602,0 -0.7947845,0.35756 -0.7947845,0.79272 v 9.5255 c 0,0.43517 0.3596243,0.79324 0.7947845,0.79324 H 15.610929 c 0.43516,0 0.793234,-0.35807 0.793234,-0.79324 v -9.52551 c 0,-0.43516 -0.358074,-0.79272 -0.793234,-0.79272 h -0.529167 c -0.360688,-0.008 -0.360688,0.53717 0,0.52917 h 0.529167 c 0.151162,0 0.263552,0.11239 0.263552,0.26355 v 7.67395 H 1.0583297 v -7.67395 c 0,-0.15116 0.1144666,-0.26355 0.2656178,-0.26355 h 0.5270976 c 0.3606906,0.008 0.3606906,-0.53717 0,-0.52917 z m 7.9395662,2.11202 c -0.116313,-7.9e-4 -0.219485,0.0745 -0.254248,0.18552 l -1.588016,4.76198 c -0.111967,0.33487 0.390329,0.50282 0.502295,0.16795 l 1.588016,-4.76353 c 0.05989,-0.17133 -0.06656,-0.35072 -0.248047,-0.35192 z m 1.1503183,1.52962 1.343586,1.12086 -1.343586,1.11932 c -0.287081,0.22475 0.0674,0.64883 0.339514,0.40617 l 1.585949,-1.3224 c 0.126643,-0.10577 0.126643,-0.30039 0,-0.40617 l -1.585949,-1.32447 c -0.04741,-0.0406 -0.107622,-0.0631 -0.183452,-0.063 -0.2501,0.0219 -0.340778,0.32025 -0.156062,0.46974 z m -4.0705533,-0.46922 c -0.059587,0.002 -0.1167659,0.024 -0.1622637,0.0625 l -1.5875,1.32447 c -0.1266428,0.10578 -0.1266428,0.3004 0,0.40617 l 1.5875,1.3224 c 0.2730289,0.25429 0.6376564,-0.18393 0.3379629,-0.40617 L 5.175392,286.9463 6.5189779,285.82544 c 0.1954953,-0.16007 0.076854,-0.47692 -0.1756992,-0.46922 z m -5.284949,5.82392 H 15.874481 v 1.32188 c 0,0.15116 -0.11239,0.26355 -0.263552,0.26355 H 1.3239475 c -0.1511512,0 -0.2656178,-0.11239 -0.2656178,-0.26355 z m 7.95197,0.52865 -1.085723,5.3e-4 c -0.337259,0.0403 -0.314608,0.51807 0.01241,0.5271 h 1.058844 c 0.36336,0.0321 0.39361,-0.52033 0.01447,-0.52762 z m -2.027785,2.09496 c -0.106199,-0.002 -0.203462,0.0592 -0.2470124,0.15607 -0.1274101,0.27328 -0.3556741,0.59239 -0.7498239,0.92294 H 5.5562465 c -0.4351603,0 -0.7927155,0.36014 -0.7927155,0.7953 v 0.5271 c -5.292e-4,0.14612 0.11743,0.26503 0.2635488,0.26561 H 11.90573 c 0.146929,5.3e-4 0.266177,-0.11868 0.265616,-0.26561 v -0.5271 c 0,-0.43516 -0.359622,-0.7953 -0.794782,-0.7953 h -0.428916 c -0.39411,-0.33053 -0.622425,-0.64968 -0.749824,-0.92294 -0.0448,-0.0994 -0.145915,-0.16112 -0.2547643,-0.15555 -0.189021,0.01 -0.307073,0.20886 -0.224793,0.37931 0.10314,0.22122 0.260638,0.45853 0.4728393,0.69918 H 6.7422201 c 0.2121906,-0.24065 0.3696886,-0.47796 0.4728396,-0.69918 0.084,-0.17352 -0.0398,-0.37572 -0.232545,-0.37983 z m -1.4262682,1.60869 h 5.8203175 c 0.151138,0 0.265615,0.11446 0.265615,0.26562 v 0.26355 H 5.2926976 v -0.26355 c 0,-0.15116 0.1123897,-0.26562 0.2635489,-0.26562 z"
    />
  </g>
</svg>
